<?xml version="1.0" standalone="no"?>
<!DOCTYPE svg PUBLIC "-//W3C//DTD SVG 20010904//EN"
 "http://www.w3.org/TR/2001/REC-SVG-20010904/DTD/svg10.dtd">
<svg version="1.0" xmlns="http://www.w3.org/2000/svg"
 width="670.000000pt" height="670.000000pt" viewBox="0 0 670.000000 670.000000"
 preserveAspectRatio="xMidYMid meet">
<metadata>
Created by potrace 1.14, written by Peter Selinger 2001-2017
</metadata>
<g transform="translate(0.000000,670.000000) scale(0.100000,-0.100000)"
fill="#000000" stroke="none">
<path d="M3572 4977 c-12 -13 -22 -27 -22 -31 0 -4 -7 -14 -15 -23 -14 -13
-20 -11 -63 20 -76 55 -76 55 -69 15 l5 -35 -66 -6 c-132 -13 -207 -33 -274
-74 -21 -13 -40 -23 -43 -23 -15 0 -115 -82 -115 -94 0 -3 -13 -20 -30 -38
-16 -18 -30 -38 -30 -45 0 -7 -4 -13 -8 -13 -21 0 -61 -152 -61 -230 0 -66 22
-174 39 -195 11 -13 10 -18 -5 -29 -25 -18 -24 -124 1 -174 25 -48 53 -74 74
-67 14 4 20 -5 30 -40 7 -24 19 -50 26 -56 8 -6 14 -16 14 -21 0 -18 72 -123
106 -155 19 -18 34 -37 34 -42 0 -6 4 -11 8 -11 5 0 17 -8 28 -18 93 -84 237
-105 354 -51 60 28 146 106 201 184 45 63 93 151 103 188 5 22 11 27 26 22 14
-5 26 4 49 36 40 55 52 119 37 192 -5 23 -4 42 2 50 11 12 24 62 37 137 7 40
-11 161 -31 207 -8 17 -14 36 -14 41 0 6 -6 17 -12 24 -7 7 -22 29 -33 48 -10
19 -34 50 -52 69 -39 41 -40 53 -8 110 14 23 25 45 25 47 0 12 -46 1 -95 -22
l-55 -26 -20 23 c-10 13 -25 48 -31 77 -7 28 -15 52 -19 52 -4 0 -16 -10 -28
-23z m67 -512 c40 -99 71 -153 114 -197 20 -20 32 -43 31 -54 -8 -49 -23 -112
-35 -144 -37 -103 -99 -240 -109 -240 -3 0 -11 -14 -19 -30 -18 -42 -119 -142
-169 -168 -52 -27 -162 -31 -182 -7 -7 8 -18 15 -25 15 -23 0 -104 80 -149
148 -55 83 -96 170 -135 289 -34 103 -39 152 -16 154 18 2 21 2 60 13 66 17
119 50 185 115 39 37 70 71 70 75 0 4 11 19 24 33 l25 26 -19 -69 c-30 -110
-38 -135 -51 -150 -14 -17 1 -19 29 -5 9 5 39 20 65 33 27 13 60 29 75 37 36
19 154 138 177 178 11 18 20 31 21 30 1 -1 16 -38 33 -82z"/>
<path d="M3664 3448 c3 -18 8 -67 11 -108 3 -41 8 -96 11 -122 l5 -48 -28 11
c-245 98 -330 122 -356 101 -7 -6 -35 -18 -62 -27 -28 -9 -63 -22 -80 -30 -25
-12 -48 -21 -75 -30 -3 -1 -13 -5 -22 -8 -45 -17 -49 -17 -44 1 3 9 8 55 11
102 3 47 8 106 10 131 l4 46 -47 -13 c-60 -15 -168 -52 -209 -70 -17 -8 -38
-14 -46 -14 -9 0 -19 -4 -22 -10 -3 -5 -16 -10 -28 -10 -27 -1 -106 -55 -139
-95 -13 -16 -29 -47 -35 -67 l-11 -37 57 -11 c31 -6 88 -17 126 -25 39 -7 99
-19 135 -25 75 -13 181 -36 260 -56 30 -7 80 -18 110 -25 59 -12 132 -39 140
-51 3 -4 37 3 75 17 39 13 106 31 149 40 44 9 83 18 87 20 8 5 90 23 229 50
47 9 108 23 135 30 28 8 72 17 99 20 27 4 55 9 62 12 16 6 19 49 4 58 -5 3
-10 14 -10 24 0 19 -66 91 -83 91 -6 0 -18 6 -26 13 -9 8 -32 19 -51 26 -19 7
-48 19 -65 26 -49 22 -107 42 -155 55 -25 7 -62 19 -83 26 -50 19 -49 19 -43
-18z"/>
<path d="M2197 3032 c-19 -21 -22 -48 -19 -214 l2 -98 78 1 c72 1 83 -2 130
-31 53 -33 92 -76 92 -104 0 -8 9 -33 20 -54 22 -42 27 -137 16 -286 -6 -81
-19 -107 -68 -145 -25 -20 -126 -60 -170 -68 -22 -4 -29 -12 -34 -39 -10 -52
9 -63 153 -85 71 -11 134 -22 141 -24 8 -3 37 -8 65 -11 29 -3 70 -10 92 -16
40 -10 116 -22 210 -34 28 -3 77 -12 110 -20 33 -7 71 -14 85 -14 40 0 100
-20 119 -39 50 -50 167 -59 241 -19 48 27 97 41 200 57 36 6 76 13 90 16 14 3
54 10 90 15 91 13 180 28 210 35 14 3 54 10 89 16 35 5 67 11 71 14 4 3 36 9
71 15 168 26 189 36 189 91 0 27 -15 39 -50 39 -33 0 -134 52 -166 84 -59 61
-64 80 -64 250 0 124 3 158 15 170 8 8 15 25 15 38 0 47 62 115 129 141 23 10
69 17 106 17 l64 0 0 143 c1 143 1 144 -23 157 -20 10 -34 10 -68 2 -24 -7
-74 -18 -113 -26 -66 -13 -91 -19 -225 -51 -30 -8 -82 -19 -115 -25 -33 -7
-85 -18 -115 -26 -134 -32 -255 -58 -323 -69 -26 -4 -51 -19 -78 -46 -36 -36
-44 -39 -92 -39 -57 0 -72 8 -105 56 -18 26 -31 32 -104 47 -46 10 -92 20
-103 23 -11 2 -44 9 -73 14 -29 5 -68 14 -85 19 -18 5 -63 15 -102 21 -38 7
-97 18 -130 25 -33 7 -96 20 -140 29 -135 27 -269 55 -290 61 -14 4 -27 -1
-38 -13z m1143 -1094 c0 -8 27 -4 36 5 15 15 24 6 24 -25 0 -63 -9 -78 -46
-78 -41 0 -56 23 -53 84 2 40 4 43 21 33 10 -7 18 -15 18 -19z"/>
<path d="M2084 2553 c-127 -40 -175 -234 -81 -326 44 -44 78 -59 131 -59 60 0
155 24 200 50 l31 18 0 105 c0 57 -4 113 -9 124 -6 11 -12 38 -15 60 l-6 40
-100 2 c-68 1 -116 -3 -151 -14z"/>
<path d="M4346 2553 c-11 -42 -20 -110 -17 -140 1 -17 -3 -41 -9 -53 -9 -16
-8 -25 0 -36 7 -8 10 -27 6 -46 -3 -18 -2 -37 2 -43 14 -19 76 -44 152 -62 39
-8 119 -4 141 8 38 22 80 62 95 91 20 39 18 131 -5 176 -49 95 -106 122 -261
122 -85 0 -99 -2 -104 -17z"/>
</g>
</svg>
